<mxfile host="app.diagrams.net" modified="2023-08-11T20:53:25.119Z" agent="Mozilla/5.0 (Windows NT 10.0; Win64; x64) AppleWebKit/537.36 (KHTML, like Gecko) Chrome/114.0.0.0 Safari/537.36" etag="PbIxVwQmh0NJ7T3fJVpj" version="21.6.8" type="google">
  <diagram id="8u7ePOjxfjbGafcpaYru" name="Página-1">
    <mxGraphModel grid="1" page="1" gridSize="10" guides="1" tooltips="1" connect="1" arrows="1" fold="1" pageScale="1" pageWidth="827" pageHeight="1169" math="0" shadow="0">
      <root>
        <mxCell id="0" />
        <mxCell id="1" parent="0" />
        <mxCell id="UhUU77l_N7PKXn1t3epN-23" style="edgeStyle=orthogonalEdgeStyle;rounded=0;orthogonalLoop=1;jettySize=auto;html=1;exitX=0.5;exitY=0.5;exitDx=0;exitDy=0;exitPerimeter=0;entryX=0;entryY=0.5;entryDx=0;entryDy=0;" edge="1" parent="1" source="GjsFJKWOBZdjD1EGZSyx-7" target="GjsFJKWOBZdjD1EGZSyx-8">
          <mxGeometry relative="1" as="geometry" />
        </mxCell>
        <mxCell id="GjsFJKWOBZdjD1EGZSyx-7" value="Usuario" style="shape=umlActor;verticalLabelPosition=bottom;verticalAlign=top;html=1;outlineConnect=0;" vertex="1" parent="1">
          <mxGeometry x="70" y="140" width="40" height="80" as="geometry" />
        </mxCell>
        <mxCell id="UhUU77l_N7PKXn1t3epN-12" style="edgeStyle=orthogonalEdgeStyle;rounded=0;orthogonalLoop=1;jettySize=auto;html=1;entryX=0;entryY=0.5;entryDx=0;entryDy=0;" edge="1" parent="1" source="GjsFJKWOBZdjD1EGZSyx-8" target="GjsFJKWOBZdjD1EGZSyx-23">
          <mxGeometry relative="1" as="geometry">
            <Array as="points">
              <mxPoint x="175" y="180" />
            </Array>
          </mxGeometry>
        </mxCell>
        <mxCell id="GjsFJKWOBZdjD1EGZSyx-8" value="Ingresar a la página web" style="ellipse;whiteSpace=wrap;html=1;aspect=fixed;" vertex="1" parent="1">
          <mxGeometry x="190" y="135" width="90" height="90" as="geometry" />
        </mxCell>
        <mxCell id="UhUU77l_N7PKXn1t3epN-10" style="edgeStyle=orthogonalEdgeStyle;rounded=0;orthogonalLoop=1;jettySize=auto;html=1;exitX=0.5;exitY=0.5;exitDx=0;exitDy=0;exitPerimeter=0;entryX=0.5;entryY=0;entryDx=0;entryDy=0;" edge="1" parent="1" source="GjsFJKWOBZdjD1EGZSyx-12" target="UhUU77l_N7PKXn1t3epN-4">
          <mxGeometry relative="1" as="geometry" />
        </mxCell>
        <mxCell id="GjsFJKWOBZdjD1EGZSyx-12" value="BDD&lt;br&gt;Bítacora" style="shape=umlActor;verticalLabelPosition=bottom;verticalAlign=top;html=1;outlineConnect=0;" vertex="1" parent="1">
          <mxGeometry x="750" y="130" width="40" height="80" as="geometry" />
        </mxCell>
        <mxCell id="GjsFJKWOBZdjD1EGZSyx-22" style="edgeStyle=orthogonalEdgeStyle;rounded=0;orthogonalLoop=1;jettySize=auto;html=1;entryX=0;entryY=0.5;entryDx=0;entryDy=0;" edge="1" parent="1" source="GjsFJKWOBZdjD1EGZSyx-23" target="GjsFJKWOBZdjD1EGZSyx-28">
          <mxGeometry relative="1" as="geometry">
            <mxPoint x="430" y="250" as="targetPoint" />
          </mxGeometry>
        </mxCell>
        <mxCell id="GjsFJKWOBZdjD1EGZSyx-23" value="Iniciar sesión" style="ellipse;whiteSpace=wrap;html=1;aspect=fixed;" vertex="1" parent="1">
          <mxGeometry x="320" y="140" width="80" height="80" as="geometry" />
        </mxCell>
        <mxCell id="GjsFJKWOBZdjD1EGZSyx-24" value="Admin" style="shape=umlActor;verticalLabelPosition=bottom;verticalAlign=top;html=1;outlineConnect=0;" vertex="1" parent="1">
          <mxGeometry x="70" y="330" width="40" height="80" as="geometry" />
        </mxCell>
        <mxCell id="GjsFJKWOBZdjD1EGZSyx-25" value="" style="curved=1;endArrow=none;html=1;rounded=0;endFill=0;entryX=0.5;entryY=0.5;entryDx=0;entryDy=0;entryPerimeter=0;exitX=1;exitY=0.3333333333333333;exitDx=0;exitDy=0;exitPerimeter=0;" edge="1" parent="1" source="GjsFJKWOBZdjD1EGZSyx-12" target="GjsFJKWOBZdjD1EGZSyx-24">
          <mxGeometry width="50" height="50" relative="1" as="geometry">
            <mxPoint x="780" y="170" as="sourcePoint" />
            <mxPoint x="110" y="370" as="targetPoint" />
            <Array as="points">
              <mxPoint x="910" y="510" />
              <mxPoint x="380" y="459" />
            </Array>
          </mxGeometry>
        </mxCell>
        <mxCell id="GjsFJKWOBZdjD1EGZSyx-28" value="Crear Nueva&lt;br&gt;Bitácora" style="ellipse;whiteSpace=wrap;html=1;aspect=fixed;" vertex="1" parent="1">
          <mxGeometry x="440" y="135" width="90" height="90" as="geometry" />
        </mxCell>
        <mxCell id="GjsFJKWOBZdjD1EGZSyx-31" value="Añadir descripcion" style="ellipse;whiteSpace=wrap;html=1;aspect=fixed;" vertex="1" parent="1">
          <mxGeometry x="590" y="140" width="80" height="80" as="geometry" />
        </mxCell>
        <mxCell id="GjsFJKWOBZdjD1EGZSyx-33" value="Ingresar estado" style="ellipse;whiteSpace=wrap;html=1;aspect=fixed;" vertex="1" parent="1">
          <mxGeometry x="450" y="270" width="80" height="80" as="geometry" />
        </mxCell>
        <mxCell id="UhUU77l_N7PKXn1t3epN-3" value="" style="edgeStyle=orthogonalEdgeStyle;rounded=0;orthogonalLoop=1;jettySize=auto;html=1;" edge="1" parent="1" source="GjsFJKWOBZdjD1EGZSyx-42" target="GjsFJKWOBZdjD1EGZSyx-33">
          <mxGeometry relative="1" as="geometry" />
        </mxCell>
        <mxCell id="GjsFJKWOBZdjD1EGZSyx-42" value="Registrar Fecha" style="ellipse;whiteSpace=wrap;html=1;aspect=fixed;" vertex="1" parent="1">
          <mxGeometry x="590" y="270" width="80" height="80" as="geometry" />
        </mxCell>
        <mxCell id="GjsFJKWOBZdjD1EGZSyx-43" style="edgeStyle=orthogonalEdgeStyle;rounded=0;orthogonalLoop=1;jettySize=auto;html=1;exitX=0.5;exitY=1;exitDx=0;exitDy=0;entryX=0.5;entryY=0;entryDx=0;entryDy=0;" edge="1" parent="1" source="GjsFJKWOBZdjD1EGZSyx-31" target="GjsFJKWOBZdjD1EGZSyx-42">
          <mxGeometry relative="1" as="geometry">
            <mxPoint x="540" y="260" as="sourcePoint" />
            <mxPoint x="620" y="260" as="targetPoint" />
          </mxGeometry>
        </mxCell>
        <mxCell id="GjsFJKWOBZdjD1EGZSyx-45" style="edgeStyle=orthogonalEdgeStyle;rounded=0;orthogonalLoop=1;jettySize=auto;html=1;exitX=0;exitY=0.5;exitDx=0;exitDy=0;entryX=1;entryY=0.5;entryDx=0;entryDy=0;" edge="1" parent="1" source="GjsFJKWOBZdjD1EGZSyx-33" target="GjsFJKWOBZdjD1EGZSyx-46">
          <mxGeometry relative="1" as="geometry">
            <mxPoint x="560" y="280" as="sourcePoint" />
            <mxPoint x="640" y="280" as="targetPoint" />
          </mxGeometry>
        </mxCell>
        <mxCell id="GjsFJKWOBZdjD1EGZSyx-46" value="Enviar Bitácora" style="ellipse;whiteSpace=wrap;html=1;aspect=fixed;" vertex="1" parent="1">
          <mxGeometry x="320" y="270" width="80" height="80" as="geometry" />
        </mxCell>
        <mxCell id="Rx1y3m8ScfboO8KEwGm8-10" value="" style="curved=1;endArrow=classic;html=1;rounded=0;exitX=1;exitY=0.5;exitDx=0;exitDy=0;entryX=0;entryY=0.5;entryDx=0;entryDy=0;" edge="1" parent="1" source="GjsFJKWOBZdjD1EGZSyx-28" target="GjsFJKWOBZdjD1EGZSyx-31">
          <mxGeometry width="50" height="50" relative="1" as="geometry">
            <mxPoint x="246.03999999999996" y="259.03999999999996" as="sourcePoint" />
            <mxPoint x="300" y="260" as="targetPoint" />
            <Array as="points" />
          </mxGeometry>
        </mxCell>
        <mxCell id="UhUU77l_N7PKXn1t3epN-11" style="edgeStyle=orthogonalEdgeStyle;rounded=0;orthogonalLoop=1;jettySize=auto;html=1;exitX=0;exitY=0.5;exitDx=0;exitDy=0;entryX=0.5;entryY=1;entryDx=0;entryDy=0;dashed=1;" edge="1" parent="1" source="UhUU77l_N7PKXn1t3epN-4" target="GjsFJKWOBZdjD1EGZSyx-46">
          <mxGeometry relative="1" as="geometry" />
        </mxCell>
        <mxCell id="UhUU77l_N7PKXn1t3epN-4" value="Guardar Bitácora" style="ellipse;whiteSpace=wrap;html=1;aspect=fixed;" vertex="1" parent="1">
          <mxGeometry x="660" y="350" width="80" height="80" as="geometry" />
        </mxCell>
        <mxCell id="UhUU77l_N7PKXn1t3epN-13" value="Recursos Humanos" style="shape=umlActor;verticalLabelPosition=bottom;verticalAlign=top;html=1;outlineConnect=0;" vertex="1" parent="1">
          <mxGeometry x="750" y="-130" width="40" height="80" as="geometry" />
        </mxCell>
        <mxCell id="UhUU77l_N7PKXn1t3epN-27" style="edgeStyle=orthogonalEdgeStyle;rounded=0;orthogonalLoop=1;jettySize=auto;html=1;exitX=0.5;exitY=0.5;exitDx=0;exitDy=0;exitPerimeter=0;entryX=1;entryY=0.5;entryDx=0;entryDy=0;" edge="1" parent="1" source="UhUU77l_N7PKXn1t3epN-22" target="UhUU77l_N7PKXn1t3epN-26">
          <mxGeometry relative="1" as="geometry" />
        </mxCell>
        <mxCell id="UhUU77l_N7PKXn1t3epN-22" value="BDD&lt;br&gt;Usuarios" style="shape=umlActor;verticalLabelPosition=bottom;verticalAlign=top;html=1;outlineConnect=0;" vertex="1" parent="1">
          <mxGeometry x="750" width="40" height="80" as="geometry" />
        </mxCell>
        <mxCell id="UhUU77l_N7PKXn1t3epN-28" style="edgeStyle=orthogonalEdgeStyle;rounded=0;orthogonalLoop=1;jettySize=auto;html=1;exitX=0;exitY=0.5;exitDx=0;exitDy=0;entryX=0.5;entryY=0;entryDx=0;entryDy=0;dashed=1;" edge="1" parent="1" source="UhUU77l_N7PKXn1t3epN-26" target="GjsFJKWOBZdjD1EGZSyx-23">
          <mxGeometry relative="1" as="geometry" />
        </mxCell>
        <mxCell id="UhUU77l_N7PKXn1t3epN-26" value="Verificar información" style="ellipse;whiteSpace=wrap;html=1;aspect=fixed;" vertex="1" parent="1">
          <mxGeometry x="460" width="80" height="80" as="geometry" />
        </mxCell>
        <mxCell id="UhUU77l_N7PKXn1t3epN-30" value="" style="endArrow=none;html=1;rounded=0;entryX=0.5;entryY=0.5;entryDx=0;entryDy=0;entryPerimeter=0;exitX=0.75;exitY=0.1;exitDx=0;exitDy=0;exitPerimeter=0;" edge="1" parent="1" source="UhUU77l_N7PKXn1t3epN-22" target="UhUU77l_N7PKXn1t3epN-13">
          <mxGeometry width="50" height="50" relative="1" as="geometry">
            <mxPoint x="745" y="20" as="sourcePoint" />
            <mxPoint x="795" y="-30" as="targetPoint" />
            <Array as="points">
              <mxPoint x="870" y="8" />
              <mxPoint x="870" y="-30" />
              <mxPoint x="870" y="-90" />
            </Array>
          </mxGeometry>
        </mxCell>
      </root>
    </mxGraphModel>
  </diagram>
</mxfile>
